<mxfile host="app.diagrams.net" modified="2023-07-15T03:34:12.154Z" agent="Mozilla/5.0 (Macintosh; Intel Mac OS X 10_15_7) AppleWebKit/537.36 (KHTML, like Gecko) Chrome/114.0.0.0 Safari/537.36" version="21.6.2" etag="d8Msd0DbKfF4nVYhMFf3" type="device">
  <diagram id="ulNhh87Fi78HhJNaICeH" name="Page-1">
    <mxGraphModel dx="1238" dy="697" grid="1" gridSize="10" guides="1" tooltips="1" connect="1" arrows="1" fold="1" page="1" pageScale="1" pageWidth="827" pageHeight="1169" math="0" shadow="0">
      <root>
        <mxCell id="0" />
        <mxCell id="1" parent="0" />
        <mxCell id="oGiFemFPAd4frjYPwtwY-1" value="SHIP_MOVEMENT" style="text;html=1;align=center;verticalAlign=middle;resizable=0;points=[];autosize=1;strokeColor=none;fillColor=none;" vertex="1" parent="1">
          <mxGeometry x="200" y="200" width="130" height="30" as="geometry" />
        </mxCell>
        <mxCell id="oGiFemFPAd4frjYPwtwY-2" value="" style="shape=table;startSize=0;container=1;collapsible=0;childLayout=tableLayout;" vertex="1" parent="1">
          <mxGeometry x="200" y="230" width="360" height="40" as="geometry" />
        </mxCell>
        <mxCell id="oGiFemFPAd4frjYPwtwY-3" value="" style="shape=tableRow;horizontal=0;startSize=0;swimlaneHead=0;swimlaneBody=0;strokeColor=inherit;top=0;left=0;bottom=0;right=0;collapsible=0;dropTarget=0;fillColor=none;points=[[0,0.5],[1,0.5]];portConstraint=eastwest;" vertex="1" parent="oGiFemFPAd4frjYPwtwY-2">
          <mxGeometry width="360" height="40" as="geometry" />
        </mxCell>
        <mxCell id="oGiFemFPAd4frjYPwtwY-4" value="&lt;u&gt;Time_stamp&lt;/u&gt;" style="shape=partialRectangle;html=1;whiteSpace=wrap;connectable=0;strokeColor=inherit;overflow=hidden;fillColor=none;top=0;left=0;bottom=0;right=0;pointerEvents=1;" vertex="1" parent="oGiFemFPAd4frjYPwtwY-3">
          <mxGeometry width="72" height="40" as="geometry">
            <mxRectangle width="72" height="40" as="alternateBounds" />
          </mxGeometry>
        </mxCell>
        <mxCell id="oGiFemFPAd4frjYPwtwY-5" value="&lt;u&gt;Date&lt;/u&gt;" style="shape=partialRectangle;html=1;whiteSpace=wrap;connectable=0;strokeColor=inherit;overflow=hidden;fillColor=none;top=0;left=0;bottom=0;right=0;pointerEvents=1;" vertex="1" parent="oGiFemFPAd4frjYPwtwY-3">
          <mxGeometry x="72" width="72" height="40" as="geometry">
            <mxRectangle width="72" height="40" as="alternateBounds" />
          </mxGeometry>
        </mxCell>
        <mxCell id="oGiFemFPAd4frjYPwtwY-6" value="&lt;u&gt;Time&lt;/u&gt;" style="shape=partialRectangle;html=1;whiteSpace=wrap;connectable=0;strokeColor=inherit;overflow=hidden;fillColor=none;top=0;left=0;bottom=0;right=0;pointerEvents=1;" vertex="1" parent="oGiFemFPAd4frjYPwtwY-3">
          <mxGeometry x="144" width="72" height="40" as="geometry">
            <mxRectangle width="72" height="40" as="alternateBounds" />
          </mxGeometry>
        </mxCell>
        <mxCell id="oGiFemFPAd4frjYPwtwY-7" value="Longitude" style="shape=partialRectangle;html=1;whiteSpace=wrap;connectable=0;strokeColor=inherit;overflow=hidden;fillColor=none;top=0;left=0;bottom=0;right=0;pointerEvents=1;" vertex="1" parent="oGiFemFPAd4frjYPwtwY-3">
          <mxGeometry x="216" width="72" height="40" as="geometry">
            <mxRectangle width="72" height="40" as="alternateBounds" />
          </mxGeometry>
        </mxCell>
        <mxCell id="oGiFemFPAd4frjYPwtwY-8" value="Latitude" style="shape=partialRectangle;html=1;whiteSpace=wrap;connectable=0;strokeColor=inherit;overflow=hidden;fillColor=none;top=0;left=0;bottom=0;right=0;pointerEvents=1;" vertex="1" parent="oGiFemFPAd4frjYPwtwY-3">
          <mxGeometry x="288" width="72" height="40" as="geometry">
            <mxRectangle width="72" height="40" as="alternateBounds" />
          </mxGeometry>
        </mxCell>
        <mxCell id="oGiFemFPAd4frjYPwtwY-9" value="SHIP" style="text;html=1;align=center;verticalAlign=middle;resizable=0;points=[];autosize=1;strokeColor=none;fillColor=none;" vertex="1" parent="1">
          <mxGeometry x="200" y="80" width="50" height="30" as="geometry" />
        </mxCell>
        <mxCell id="oGiFemFPAd4frjYPwtwY-11" value="" style="shape=table;startSize=0;container=1;collapsible=0;childLayout=tableLayout;" vertex="1" parent="1">
          <mxGeometry x="200" y="110" width="160" height="40" as="geometry" />
        </mxCell>
        <mxCell id="oGiFemFPAd4frjYPwtwY-12" value="" style="shape=tableRow;horizontal=0;startSize=0;swimlaneHead=0;swimlaneBody=0;strokeColor=inherit;top=0;left=0;bottom=0;right=0;collapsible=0;dropTarget=0;fillColor=none;points=[[0,0.5],[1,0.5]];portConstraint=eastwest;" vertex="1" parent="oGiFemFPAd4frjYPwtwY-11">
          <mxGeometry width="160" height="40" as="geometry" />
        </mxCell>
        <mxCell id="oGiFemFPAd4frjYPwtwY-13" value="&lt;u&gt;Sname&lt;/u&gt;" style="shape=partialRectangle;html=1;whiteSpace=wrap;connectable=0;strokeColor=inherit;overflow=hidden;fillColor=none;top=0;left=0;bottom=0;right=0;pointerEvents=1;" vertex="1" parent="oGiFemFPAd4frjYPwtwY-12">
          <mxGeometry width="80" height="40" as="geometry">
            <mxRectangle width="80" height="40" as="alternateBounds" />
          </mxGeometry>
        </mxCell>
        <mxCell id="oGiFemFPAd4frjYPwtwY-14" value="Owner" style="shape=partialRectangle;html=1;whiteSpace=wrap;connectable=0;strokeColor=inherit;overflow=hidden;fillColor=none;top=0;left=0;bottom=0;right=0;pointerEvents=1;" vertex="1" parent="oGiFemFPAd4frjYPwtwY-12">
          <mxGeometry x="80" width="80" height="40" as="geometry">
            <mxRectangle width="80" height="40" as="alternateBounds" />
          </mxGeometry>
        </mxCell>
        <mxCell id="oGiFemFPAd4frjYPwtwY-15" value="SHIP_TYPE" style="text;html=1;align=center;verticalAlign=middle;resizable=0;points=[];autosize=1;strokeColor=none;fillColor=none;" vertex="1" parent="1">
          <mxGeometry x="200" y="320" width="90" height="30" as="geometry" />
        </mxCell>
        <mxCell id="oGiFemFPAd4frjYPwtwY-16" value="" style="shape=table;startSize=0;container=1;collapsible=0;childLayout=tableLayout;" vertex="1" parent="1">
          <mxGeometry x="200" y="350" width="240" height="40" as="geometry" />
        </mxCell>
        <mxCell id="oGiFemFPAd4frjYPwtwY-17" value="" style="shape=tableRow;horizontal=0;startSize=0;swimlaneHead=0;swimlaneBody=0;strokeColor=inherit;top=0;left=0;bottom=0;right=0;collapsible=0;dropTarget=0;fillColor=none;points=[[0,0.5],[1,0.5]];portConstraint=eastwest;" vertex="1" parent="oGiFemFPAd4frjYPwtwY-16">
          <mxGeometry width="240" height="40" as="geometry" />
        </mxCell>
        <mxCell id="oGiFemFPAd4frjYPwtwY-18" value="&lt;u&gt;Type&lt;/u&gt;" style="shape=partialRectangle;html=1;whiteSpace=wrap;connectable=0;strokeColor=inherit;overflow=hidden;fillColor=none;top=0;left=0;bottom=0;right=0;pointerEvents=1;" vertex="1" parent="oGiFemFPAd4frjYPwtwY-17">
          <mxGeometry width="80" height="40" as="geometry">
            <mxRectangle width="80" height="40" as="alternateBounds" />
          </mxGeometry>
        </mxCell>
        <mxCell id="oGiFemFPAd4frjYPwtwY-19" value="Tonnage" style="shape=partialRectangle;html=1;whiteSpace=wrap;connectable=0;strokeColor=inherit;overflow=hidden;fillColor=none;top=0;left=0;bottom=0;right=0;pointerEvents=1;" vertex="1" parent="oGiFemFPAd4frjYPwtwY-17">
          <mxGeometry x="80" width="80" height="40" as="geometry">
            <mxRectangle width="80" height="40" as="alternateBounds" />
          </mxGeometry>
        </mxCell>
        <mxCell id="oGiFemFPAd4frjYPwtwY-20" value="Hull" style="shape=partialRectangle;html=1;whiteSpace=wrap;connectable=0;strokeColor=inherit;overflow=hidden;fillColor=none;top=0;left=0;bottom=0;right=0;pointerEvents=1;" vertex="1" parent="oGiFemFPAd4frjYPwtwY-17">
          <mxGeometry x="160" width="80" height="40" as="geometry">
            <mxRectangle width="80" height="40" as="alternateBounds" />
          </mxGeometry>
        </mxCell>
        <mxCell id="oGiFemFPAd4frjYPwtwY-21" value="PORT_VISIT" style="text;html=1;align=center;verticalAlign=middle;resizable=0;points=[];autosize=1;strokeColor=none;fillColor=none;" vertex="1" parent="1">
          <mxGeometry x="200" y="440" width="90" height="30" as="geometry" />
        </mxCell>
        <mxCell id="oGiFemFPAd4frjYPwtwY-22" value="" style="shape=table;startSize=0;container=1;collapsible=0;childLayout=tableLayout;" vertex="1" parent="1">
          <mxGeometry x="200" y="470" width="160" height="40" as="geometry" />
        </mxCell>
        <mxCell id="oGiFemFPAd4frjYPwtwY-23" value="" style="shape=tableRow;horizontal=0;startSize=0;swimlaneHead=0;swimlaneBody=0;strokeColor=inherit;top=0;left=0;bottom=0;right=0;collapsible=0;dropTarget=0;fillColor=none;points=[[0,0.5],[1,0.5]];portConstraint=eastwest;" vertex="1" parent="oGiFemFPAd4frjYPwtwY-22">
          <mxGeometry width="160" height="40" as="geometry" />
        </mxCell>
        <mxCell id="oGiFemFPAd4frjYPwtwY-24" value="&lt;u&gt;Start_date&lt;/u&gt;" style="shape=partialRectangle;html=1;whiteSpace=wrap;connectable=0;strokeColor=inherit;overflow=hidden;fillColor=none;top=0;left=0;bottom=0;right=0;pointerEvents=1;" vertex="1" parent="oGiFemFPAd4frjYPwtwY-23">
          <mxGeometry width="80" height="40" as="geometry">
            <mxRectangle width="80" height="40" as="alternateBounds" />
          </mxGeometry>
        </mxCell>
        <mxCell id="oGiFemFPAd4frjYPwtwY-25" value="End_date" style="shape=partialRectangle;html=1;whiteSpace=wrap;connectable=0;strokeColor=inherit;overflow=hidden;fillColor=none;top=0;left=0;bottom=0;right=0;pointerEvents=1;" vertex="1" parent="oGiFemFPAd4frjYPwtwY-23">
          <mxGeometry x="80" width="80" height="40" as="geometry">
            <mxRectangle width="80" height="40" as="alternateBounds" />
          </mxGeometry>
        </mxCell>
        <mxCell id="oGiFemFPAd4frjYPwtwY-26" value="PORT" style="text;html=1;align=center;verticalAlign=middle;resizable=0;points=[];autosize=1;strokeColor=none;fillColor=none;" vertex="1" parent="1">
          <mxGeometry x="200" y="560" width="60" height="30" as="geometry" />
        </mxCell>
        <mxCell id="oGiFemFPAd4frjYPwtwY-27" value="" style="shape=table;startSize=0;container=1;collapsible=0;childLayout=tableLayout;" vertex="1" parent="1">
          <mxGeometry x="200" y="590" width="80" height="40" as="geometry" />
        </mxCell>
        <mxCell id="oGiFemFPAd4frjYPwtwY-28" value="" style="shape=tableRow;horizontal=0;startSize=0;swimlaneHead=0;swimlaneBody=0;strokeColor=inherit;top=0;left=0;bottom=0;right=0;collapsible=0;dropTarget=0;fillColor=none;points=[[0,0.5],[1,0.5]];portConstraint=eastwest;" vertex="1" parent="oGiFemFPAd4frjYPwtwY-27">
          <mxGeometry width="80" height="40" as="geometry" />
        </mxCell>
        <mxCell id="oGiFemFPAd4frjYPwtwY-29" value="&lt;u&gt;Pname&lt;/u&gt;" style="shape=partialRectangle;html=1;whiteSpace=wrap;connectable=0;strokeColor=inherit;overflow=hidden;fillColor=none;top=0;left=0;bottom=0;right=0;pointerEvents=1;" vertex="1" parent="oGiFemFPAd4frjYPwtwY-28">
          <mxGeometry width="80" height="40" as="geometry">
            <mxRectangle width="80" height="40" as="alternateBounds" />
          </mxGeometry>
        </mxCell>
        <mxCell id="oGiFemFPAd4frjYPwtwY-30" value="STATE/COUNTRY" style="text;html=1;align=center;verticalAlign=middle;resizable=0;points=[];autosize=1;strokeColor=none;fillColor=none;" vertex="1" parent="1">
          <mxGeometry x="200" y="678" width="120" height="30" as="geometry" />
        </mxCell>
        <mxCell id="oGiFemFPAd4frjYPwtwY-31" value="" style="shape=table;startSize=0;container=1;collapsible=0;childLayout=tableLayout;" vertex="1" parent="1">
          <mxGeometry x="200" y="710" width="160" height="40" as="geometry" />
        </mxCell>
        <mxCell id="oGiFemFPAd4frjYPwtwY-32" value="" style="shape=tableRow;horizontal=0;startSize=0;swimlaneHead=0;swimlaneBody=0;strokeColor=inherit;top=0;left=0;bottom=0;right=0;collapsible=0;dropTarget=0;fillColor=none;points=[[0,0.5],[1,0.5]];portConstraint=eastwest;" vertex="1" parent="oGiFemFPAd4frjYPwtwY-31">
          <mxGeometry width="160" height="40" as="geometry" />
        </mxCell>
        <mxCell id="oGiFemFPAd4frjYPwtwY-33" value="&lt;u&gt;Name&lt;/u&gt;" style="shape=partialRectangle;html=1;whiteSpace=wrap;connectable=0;strokeColor=inherit;overflow=hidden;fillColor=none;top=0;left=0;bottom=0;right=0;pointerEvents=1;" vertex="1" parent="oGiFemFPAd4frjYPwtwY-32">
          <mxGeometry width="80" height="40" as="geometry">
            <mxRectangle width="80" height="40" as="alternateBounds" />
          </mxGeometry>
        </mxCell>
        <mxCell id="oGiFemFPAd4frjYPwtwY-34" value="Continent" style="shape=partialRectangle;html=1;whiteSpace=wrap;connectable=0;strokeColor=inherit;overflow=hidden;fillColor=none;top=0;left=0;bottom=0;right=0;pointerEvents=1;" vertex="1" parent="oGiFemFPAd4frjYPwtwY-32">
          <mxGeometry x="80" width="80" height="40" as="geometry">
            <mxRectangle width="80" height="40" as="alternateBounds" />
          </mxGeometry>
        </mxCell>
        <mxCell id="oGiFemFPAd4frjYPwtwY-42" value="" style="shape=table;startSize=0;container=1;collapsible=0;childLayout=tableLayout;" vertex="1" parent="1">
          <mxGeometry x="360" y="110" width="160" height="40" as="geometry" />
        </mxCell>
        <mxCell id="oGiFemFPAd4frjYPwtwY-43" value="" style="shape=tableRow;horizontal=0;startSize=0;swimlaneHead=0;swimlaneBody=0;strokeColor=inherit;top=0;left=0;bottom=0;right=0;collapsible=0;dropTarget=0;fillColor=none;points=[[0,0.5],[1,0.5]];portConstraint=eastwest;" vertex="1" parent="oGiFemFPAd4frjYPwtwY-42">
          <mxGeometry width="160" height="40" as="geometry" />
        </mxCell>
        <mxCell id="oGiFemFPAd4frjYPwtwY-44" value="Type" style="shape=partialRectangle;html=1;whiteSpace=wrap;connectable=0;strokeColor=inherit;overflow=hidden;fillColor=none;top=0;left=0;bottom=0;right=0;pointerEvents=1;" vertex="1" parent="oGiFemFPAd4frjYPwtwY-43">
          <mxGeometry width="80" height="40" as="geometry">
            <mxRectangle width="80" height="40" as="alternateBounds" />
          </mxGeometry>
        </mxCell>
        <mxCell id="oGiFemFPAd4frjYPwtwY-45" value="Pname" style="shape=partialRectangle;html=1;whiteSpace=wrap;connectable=0;strokeColor=inherit;overflow=hidden;fillColor=none;top=0;left=0;bottom=0;right=0;pointerEvents=1;" vertex="1" parent="oGiFemFPAd4frjYPwtwY-43">
          <mxGeometry x="80" width="80" height="40" as="geometry">
            <mxRectangle width="80" height="40" as="alternateBounds" />
          </mxGeometry>
        </mxCell>
        <mxCell id="oGiFemFPAd4frjYPwtwY-49" value="SEA/OCEAN/LAKE" style="text;html=1;align=center;verticalAlign=middle;resizable=0;points=[];autosize=1;strokeColor=none;fillColor=none;" vertex="1" parent="1">
          <mxGeometry x="200" y="798" width="130" height="30" as="geometry" />
        </mxCell>
        <mxCell id="oGiFemFPAd4frjYPwtwY-50" value="" style="shape=table;startSize=0;container=1;collapsible=0;childLayout=tableLayout;" vertex="1" parent="1">
          <mxGeometry x="200" y="828" width="60" height="40" as="geometry" />
        </mxCell>
        <mxCell id="oGiFemFPAd4frjYPwtwY-51" value="" style="shape=tableRow;horizontal=0;startSize=0;swimlaneHead=0;swimlaneBody=0;strokeColor=inherit;top=0;left=0;bottom=0;right=0;collapsible=0;dropTarget=0;fillColor=none;points=[[0,0.5],[1,0.5]];portConstraint=eastwest;" vertex="1" parent="oGiFemFPAd4frjYPwtwY-50">
          <mxGeometry width="60" height="40" as="geometry" />
        </mxCell>
        <mxCell id="oGiFemFPAd4frjYPwtwY-52" value="&lt;u&gt;Name&lt;/u&gt;" style="shape=partialRectangle;html=1;whiteSpace=wrap;connectable=0;strokeColor=inherit;overflow=hidden;fillColor=none;top=0;left=0;bottom=0;right=0;pointerEvents=1;" vertex="1" parent="oGiFemFPAd4frjYPwtwY-51">
          <mxGeometry width="60" height="40" as="geometry">
            <mxRectangle width="60" height="40" as="alternateBounds" />
          </mxGeometry>
        </mxCell>
        <mxCell id="oGiFemFPAd4frjYPwtwY-58" value="" style="shape=table;startSize=0;container=1;collapsible=0;childLayout=tableLayout;" vertex="1" parent="1">
          <mxGeometry x="278" y="590" width="82" height="40" as="geometry" />
        </mxCell>
        <mxCell id="oGiFemFPAd4frjYPwtwY-59" value="" style="shape=tableRow;horizontal=0;startSize=0;swimlaneHead=0;swimlaneBody=0;strokeColor=inherit;top=0;left=0;bottom=0;right=0;collapsible=0;dropTarget=0;fillColor=none;points=[[0,0.5],[1,0.5]];portConstraint=eastwest;" vertex="1" parent="oGiFemFPAd4frjYPwtwY-58">
          <mxGeometry width="82" height="40" as="geometry" />
        </mxCell>
        <mxCell id="oGiFemFPAd4frjYPwtwY-60" value="Sname" style="shape=partialRectangle;html=1;whiteSpace=wrap;connectable=0;strokeColor=inherit;overflow=hidden;fillColor=none;top=0;left=0;bottom=0;right=0;pointerEvents=1;" vertex="1" parent="oGiFemFPAd4frjYPwtwY-59">
          <mxGeometry width="82" height="40" as="geometry">
            <mxRectangle width="82" height="40" as="alternateBounds" />
          </mxGeometry>
        </mxCell>
        <mxCell id="oGiFemFPAd4frjYPwtwY-61" style="edgeStyle=orthogonalEdgeStyle;rounded=0;orthogonalLoop=1;jettySize=auto;html=1;exitX=1;exitY=0.5;exitDx=0;exitDy=0;entryX=1;entryY=0.5;entryDx=0;entryDy=0;" edge="1" parent="1" source="oGiFemFPAd4frjYPwtwY-59" target="oGiFemFPAd4frjYPwtwY-51">
          <mxGeometry relative="1" as="geometry">
            <mxPoint x="380" y="860" as="targetPoint" />
          </mxGeometry>
        </mxCell>
        <mxCell id="oGiFemFPAd4frjYPwtwY-62" value="" style="endArrow=classic;html=1;rounded=0;exitX=0.254;exitY=1.044;exitDx=0;exitDy=0;exitPerimeter=0;entryX=0;entryY=0.5;entryDx=0;entryDy=0;" edge="1" parent="1" source="oGiFemFPAd4frjYPwtwY-23" target="oGiFemFPAd4frjYPwtwY-3">
          <mxGeometry width="50" height="50" relative="1" as="geometry">
            <mxPoint x="520" y="570" as="sourcePoint" />
            <mxPoint x="570" y="520" as="targetPoint" />
            <Array as="points">
              <mxPoint x="241" y="530" />
              <mxPoint x="180" y="530" />
              <mxPoint x="180" y="250" />
            </Array>
          </mxGeometry>
        </mxCell>
        <mxCell id="oGiFemFPAd4frjYPwtwY-63" value="" style="endArrow=classic;html=1;rounded=0;exitX=0.233;exitY=0.961;exitDx=0;exitDy=0;exitPerimeter=0;" edge="1" parent="1" source="oGiFemFPAd4frjYPwtwY-43">
          <mxGeometry width="50" height="50" relative="1" as="geometry">
            <mxPoint x="400" y="160" as="sourcePoint" />
            <mxPoint x="240" y="390" as="targetPoint" />
            <Array as="points">
              <mxPoint x="399" y="190" />
              <mxPoint x="580" y="190" />
              <mxPoint x="580" y="430" />
              <mxPoint x="240" y="430" />
            </Array>
          </mxGeometry>
        </mxCell>
        <mxCell id="oGiFemFPAd4frjYPwtwY-64" value="" style="endArrow=classic;html=1;rounded=0;exitX=0.479;exitY=1.05;exitDx=0;exitDy=0;exitPerimeter=0;entryX=-0.024;entryY=0.316;entryDx=0;entryDy=0;entryPerimeter=0;" edge="1" parent="1" source="oGiFemFPAd4frjYPwtwY-59" target="oGiFemFPAd4frjYPwtwY-12">
          <mxGeometry width="50" height="50" relative="1" as="geometry">
            <mxPoint x="360" y="600" as="sourcePoint" />
            <mxPoint x="410" y="550" as="targetPoint" />
            <Array as="points">
              <mxPoint x="317" y="660" />
              <mxPoint x="160" y="660" />
              <mxPoint x="160" y="123" />
            </Array>
          </mxGeometry>
        </mxCell>
      </root>
    </mxGraphModel>
  </diagram>
</mxfile>
